<?xml version="1.0" encoding="UTF-8" standalone="no"?>
<!-- Created with Inkscape (http://www.inkscape.org/) -->

<svg
   xmlns:dc="http://purl.org/dc/elements/1.1/"
   xmlns:cc="http://creativecommons.org/ns#"
   xmlns:rdf="http://www.w3.org/1999/02/22-rdf-syntax-ns#"
   xmlns:svg="http://www.w3.org/2000/svg"
   xmlns="http://www.w3.org/2000/svg"
   version="1.1"
   width="156.41251"
   height="213.14999"
   id="svg3023"
   xml:space="preserve"><metadata
     id="metadata3029"><rdf:RDF><cc:Work
         rdf:about=""><dc:format>image/svg+xml</dc:format><dc:type
           rdf:resource="http://purl.org/dc/dcmitype/StillImage" /><dc:title></dc:title></cc:Work></rdf:RDF></metadata><defs
     id="defs3027" /><g
     transform="matrix(1.25,0,0,-1.25,0,213.15)"
     id="g3031"><g
       transform="scale(0.1,0.1)"
       id="g3033"><path
         d="M 625.645,1548.82 156.406,1079.59 625.645,610.371 1094.86,1079.59 625.645,1548.82"
         id="path3035"
         style="fill:#f68712;fill-opacity:1;fill-rule:nonzero;stroke:none" /><path
         d="M 0,1705.23 625.645,1548.82 156.406,1079.59 0,1705.23"
         id="path3037"
         style="fill:#fab20b;fill-opacity:1;fill-rule:nonzero;stroke:none" /><path
         d="m 1251.29,1705.23 -156.43,-625.64 -469.215,469.23 625.645,156.41"
         id="path3039"
         style="fill:#f47216;fill-opacity:1;fill-rule:nonzero;stroke:none" /><path
         d="M 1251.29,453.961 625.645,610.371 1094.86,1079.59 1251.29,453.961"
         id="path3041"
         style="fill:#f25c19;fill-opacity:1;fill-rule:nonzero;stroke:none" /><path
         d="M 0,453.961 156.406,1079.59 625.645,610.371 0,453.961"
         id="path3043"
         style="fill:#f89c0e;fill-opacity:1;fill-rule:nonzero;stroke:none" /><path
         d="M 625.645,1548.82 0,1705.23 l 312.812,0 312.833,-156.41"
         id="path3045"
         style="fill:#fbc707;fill-opacity:1;fill-rule:nonzero;stroke:none" /><path
         d="m 625.645,1548.82 625.645,156.41 -312.833,0 -312.812,-156.41"
         id="path3047"
         style="fill:#fbc707;fill-opacity:1;fill-rule:nonzero;stroke:none" /><path
         d="m 625.645,610.371 625.645,-156.41 -312.833,0 -312.812,156.41"
         id="path3049"
         style="fill:#f68712;fill-opacity:1;fill-rule:nonzero;stroke:none" /><path
         d="M 625.645,610.371 0,453.961 l 312.812,0 312.833,156.41"
         id="path3051"
         style="fill:#f25c19;fill-opacity:1;fill-rule:nonzero;stroke:none" /><path
         d="M 156.406,1079.59 0,453.961 0,766.773 156.406,1079.59"
         id="path3053"
         style="fill:#fff200;fill-opacity:1;fill-rule:nonzero;stroke:none" /><path
         d="M 156.406,1079.59 0,1705.23 0,1392.42 156.406,1079.59"
         id="path3055"
         style="fill:#fff200;fill-opacity:1;fill-rule:nonzero;stroke:none" /><path
         d="m 1094.86,1079.59 156.43,625.64 0,-312.81 -156.43,-312.83"
         id="path3057"
         style="fill:#f1471d;fill-opacity:1;fill-rule:nonzero;stroke:none" /><path
         d="m 1094.86,1079.59 156.43,-625.629 0,312.812 -156.43,312.817"
         id="path3059"
         style="fill:#f1471d;fill-opacity:1;fill-rule:nonzero;stroke:none" /><path
         d="m 0,316.32 97.4805,0 0,-109.84 91.2495,0 0,109.84 97.481,0 0,-316.32 -97.481,0 0,125.371 -91.2495,0 L 97.4805,0 0,0 0,316.32"
         id="path3061"
         style="fill:#4f4c4c;fill-opacity:1;fill-rule:nonzero;stroke:none" /><path
         d="m 500.703,113.02 -28.398,97.41 -0.879,0 -30.547,-97.41 59.824,0 z m -76.621,203.3 95.195,0 L 634.492,0 533.477,0 l -13.282,45.1719 -100.586,0 L 405.449,0 307.5,0 424.082,316.32"
         id="path3063"
         style="fill:#4f4c4c;fill-opacity:1;fill-rule:nonzero;stroke:none" /><path
         d="m 739.98,168.352 -104.14,147.968 114.316,0 47.832,-85.929 46.992,85.929 108.086,0 L 851.641,167.461 964.57,0 847.188,0 793.145,94.3711 737.324,0 625.664,0 739.98,168.352"
         id="path3065"
         style="fill:#4f4c4c;fill-opacity:1;fill-rule:nonzero;stroke:none" /><path
         d="m 984.551,316.32 261.839,0 0,-81.031 -164.36,0 0,-39.449 149.3,0 0,-75.36 -149.3,0 0,-39.4097 169.26,0 0,-81.0703 -266.739,0 0,316.32"
         id="path3067"
         style="fill:#4f4c4c;fill-opacity:1;fill-rule:nonzero;stroke:none" /></g></g></svg>