<?xml version="1.0" encoding="UTF-8" standalone="no"?>
<!-- Created with Inkscape (http://www.inkscape.org/) -->

<svg
   xmlns:dc="http://purl.org/dc/elements/1.1/"
   xmlns:cc="http://creativecommons.org/ns#"
   xmlns:rdf="http://www.w3.org/1999/02/22-rdf-syntax-ns#"
   xmlns:svg="http://www.w3.org/2000/svg"
   xmlns="http://www.w3.org/2000/svg"
   xmlns:sodipodi="http://sodipodi.sourceforge.net/DTD/sodipodi-0.dtd"
   xmlns:inkscape="http://www.inkscape.org/namespaces/inkscape"
   version="1.1"
   width="156.41125"
   height="156.40863"
   id="svg3023"
   xml:space="preserve"
   inkscape:version="0.48.3.1 r9886"
   sodipodi:docname="haxe-logo.svg"
   inkscape:export-xdpi="90"
   inkscape:export-ydpi="90"><sodipodi:namedview
     pagecolor="#000000"
     bordercolor="#666666"
     borderopacity="0"
     objecttolerance="10"
     gridtolerance="10"
     guidetolerance="10"
     inkscape:pageopacity="0"
     inkscape:pageshadow="2"
     inkscape:window-width="1920"
     inkscape:window-height="1025"
     id="namedview20"
     showgrid="false"
     inkscape:zoom="8"
     inkscape:cx="79.33654"
     inkscape:cy="116.71542"
     inkscape:window-x="-2"
     inkscape:window-y="32"
     inkscape:window-maximized="1"
     inkscape:current-layer="g3033" /><metadata
     id="metadata3029"><rdf:RDF><cc:Work
         rdf:about=""><dc:format>image/svg+xml</dc:format><dc:type
           rdf:resource="http://purl.org/dc/dcmitype/StillImage" /><dc:title /></cc:Work></rdf:RDF></metadata><defs
     id="defs3027" /><g
     transform="matrix(1.25,0,0,-1.25,0,213.15375)"
     id="g3031"><g
       transform="scale(0.1,0.1)"
       id="g3033"><path
         d="M 625.645,1548.82 156.406,1079.59 625.645,610.371 1094.86,1079.59 625.645,1548.82"
         id="path3035"
         style="fill:#f68712;fill-opacity:1;fill-rule:nonzero;stroke:none" /><path
         d="M 0,1705.23 625.645,1548.82 156.406,1079.59 0,1705.23"
         id="path3037"
         style="fill:#fab20b;fill-opacity:1;fill-rule:nonzero;stroke:none" /><path
         d="m 1251.29,1705.23 -156.43,-625.64 -469.215,469.23 625.645,156.41"
         id="path3039"
         style="fill:#f47216;fill-opacity:1;fill-rule:nonzero;stroke:none" /><path
         d="M 1251.29,453.961 625.645,610.371 1094.86,1079.59 1251.29,453.961"
         id="path3041"
         style="fill:#f25c19;fill-opacity:1;fill-rule:nonzero;stroke:none" /><path
         d="M 0,453.961 156.406,1079.59 625.645,610.371 0,453.961"
         id="path3043"
         style="fill:#f89c0e;fill-opacity:1;fill-rule:nonzero;stroke:none" /><path
         d="M 625.645,1548.82 0,1705.23 l 312.812,0 312.833,-156.41"
         id="path3045"
         style="fill:#fbc707;fill-opacity:1;fill-rule:nonzero;stroke:none" /><path
         d="m 625.645,1548.82 625.645,156.41 -312.833,0 -312.812,-156.41"
         id="path3047"
         style="fill:#fbc707;fill-opacity:1;fill-rule:nonzero;stroke:none" /><path
         d="m 625.645,610.371 625.645,-156.41 -312.833,0 -312.812,156.41"
         id="path3049"
         style="fill:#f68712;fill-opacity:1;fill-rule:nonzero;stroke:none" /><path
         d="M 625.645,610.371 0,453.961 l 312.812,0 312.833,156.41"
         id="path3051"
         style="fill:#f25c19;fill-opacity:1;fill-rule:nonzero;stroke:none" /><path
         d="M 156.406,1079.59 0,453.961 0,766.773 156.406,1079.59"
         id="path3053"
         style="fill:#fff200;fill-opacity:1;fill-rule:nonzero;stroke:none" /><path
         d="M 156.406,1079.59 0,1705.23 0,1392.42 156.406,1079.59"
         id="path3055"
         style="fill:#fff200;fill-opacity:1;fill-rule:nonzero;stroke:none" /><path
         d="m 1094.86,1079.59 156.43,625.64 0,-312.81 -156.43,-312.83"
         id="path3057"
         style="fill:#f1471d;fill-opacity:1;fill-rule:nonzero;stroke:none" /><path
         d="m 1094.86,1079.59 156.43,-625.629 0,312.812 -156.43,312.817"
         id="path3059"
         style="fill:#f1471d;fill-opacity:1;fill-rule:nonzero;stroke:none" /></g></g></svg>