<?xml version="1.0" encoding="UTF-8" standalone="no"?>
<!-- Created with Inkscape (http://www.inkscape.org/) -->

<svg
   xmlns:dc="http://purl.org/dc/elements/1.1/"
   xmlns:cc="http://creativecommons.org/ns#"
   xmlns:rdf="http://www.w3.org/1999/02/22-rdf-syntax-ns#"
   xmlns:svg="http://www.w3.org/2000/svg"
   xmlns="http://www.w3.org/2000/svg"
   xmlns:sodipodi="http://sodipodi.sourceforge.net/DTD/sodipodi-0.dtd"
   xmlns:inkscape="http://www.inkscape.org/namespaces/inkscape"
   version="1.1"
   width="200.00142"
   height="70.17543"
   id="svg3023"
   xml:space="preserve"
   inkscape:version="0.48.3.1 r9886"
   sodipodi:docname="powered-by-haxe.svg"
   inkscape:export-xdpi="90"
   inkscape:export-ydpi="90"
   inkscape:export-filename="/home/omni/Projects/Active/HaxeFoundation-Site/hxWiki/art/markup/files/powered-by-haxe.png"><sodipodi:namedview
     pagecolor="#000000"
     bordercolor="#666666"
     borderopacity="0"
     objecttolerance="10"
     gridtolerance="10"
     guidetolerance="10"
     inkscape:pageopacity="0"
     inkscape:pageshadow="2"
     inkscape:window-width="1920"
     inkscape:window-height="1025"
     id="namedview20"
     showgrid="false"
     inkscape:zoom="2.3680264"
     inkscape:cx="135.0171"
     inkscape:cy="23.299163"
     inkscape:window-x="-2"
     inkscape:window-y="32"
     inkscape:window-maximized="1"
     inkscape:current-layer="g3033"
     borderlayer="true"
     fit-margin-top="0"
     fit-margin-left="0"
     fit-margin-right="0"
     fit-margin-bottom="0" /><metadata
     id="metadata3029"><rdf:RDF><cc:Work
         rdf:about=""><dc:format>image/svg+xml</dc:format><dc:type
           rdf:resource="http://purl.org/dc/dcmitype/StillImage" /><dc:title></dc:title></cc:Work></rdf:RDF></metadata><defs
     id="defs3027" /><g
     transform="matrix(1.25,0,0,-1.25,-178.12498,41.355043)"
     id="g3031"><g
       transform="scale(0.1,0.1)"
       id="g3033"><g
         id="g3007"
         inkscape:export-xdpi="90"
         inkscape:export-ydpi="90"
         transform="matrix(0.92336095,0,0,0.92105266,109.21051,-18.20293)"><rect
           inkscape:export-ydpi="90"
           inkscape:export-xdpi="90"
           inkscape:export-filename="/home/omni/Projects/Active/HaxeFoundation-Site/hxWiki/art/markup/files/powered-by-haxe.png"
           transform="scale(1,-1)"
           y="-369.58423"
           x="1432.8435"
           height="592.30957"
           width="1717.1097"
           id="rect3006"
           style="fill:#ffffff;fill-opacity:1;fill-rule:evenodd;stroke:#ff8200;stroke-width:15.69040966;stroke-linecap:butt;stroke-linejoin:miter;stroke-miterlimit:4;stroke-opacity:1;stroke-dasharray:none" /><g
           inkscape:export-ydpi="90"
           inkscape:export-xdpi="90"
           inkscape:export-filename="/home/omni/Projects/Active/HaxeFoundation-Site/hxWiki/art/markup/files/powered-by-haxe.png"
           transform="matrix(0.37503371,0,0,0.37503371,1499.4676,-326.35202)"
           id="g3036"><path
             inkscape:connector-curvature="0"
             d="M 625.645,1548.82 156.406,1079.59 625.645,610.371 1094.86,1079.59 625.645,1548.82"
             id="path3035"
             style="fill:#f68712;fill-opacity:1;fill-rule:nonzero;stroke:none" /><path
             inkscape:connector-curvature="0"
             d="M 0,1705.23 625.645,1548.82 156.406,1079.59 0,1705.23"
             id="path3037"
             style="fill:#fab20b;fill-opacity:1;fill-rule:nonzero;stroke:none" /><path
             inkscape:connector-curvature="0"
             d="m 1251.29,1705.23 -156.43,-625.64 -469.215,469.23 625.645,156.41"
             id="path3039"
             style="fill:#f47216;fill-opacity:1;fill-rule:nonzero;stroke:none" /><path
             inkscape:connector-curvature="0"
             d="M 1251.29,453.961 625.645,610.371 1094.86,1079.59 1251.29,453.961"
             id="path3041"
             style="fill:#f25c19;fill-opacity:1;fill-rule:nonzero;stroke:none" /><path
             inkscape:connector-curvature="0"
             d="M 0,453.961 156.406,1079.59 625.645,610.371 0,453.961"
             id="path3043"
             style="fill:#f89c0e;fill-opacity:1;fill-rule:nonzero;stroke:none" /><path
             inkscape:connector-curvature="0"
             d="M 625.645,1548.82 0,1705.23 l 312.812,0 312.833,-156.41"
             id="path3045"
             style="fill:#fbc707;fill-opacity:1;fill-rule:nonzero;stroke:none" /><path
             inkscape:connector-curvature="0"
             d="m 625.645,1548.82 625.645,156.41 -312.833,0 -312.812,-156.41"
             id="path3047"
             style="fill:#fbc707;fill-opacity:1;fill-rule:nonzero;stroke:none" /><path
             inkscape:connector-curvature="0"
             d="m 625.645,610.371 625.645,-156.41 -312.833,0 -312.812,156.41"
             id="path3049"
             style="fill:#f68712;fill-opacity:1;fill-rule:nonzero;stroke:none" /><path
             inkscape:connector-curvature="0"
             d="M 625.645,610.371 0,453.961 l 312.812,0 312.833,156.41"
             id="path3051"
             style="fill:#f25c19;fill-opacity:1;fill-rule:nonzero;stroke:none" /><path
             inkscape:connector-curvature="0"
             d="M 156.406,1079.59 0,453.961 0,766.773 156.406,1079.59"
             id="path3053"
             style="fill:#fff200;fill-opacity:1;fill-rule:nonzero;stroke:none" /><path
             inkscape:connector-curvature="0"
             d="M 156.406,1079.59 0,1705.23 0,1392.42 156.406,1079.59"
             id="path3055"
             style="fill:#fff200;fill-opacity:1;fill-rule:nonzero;stroke:none" /><path
             inkscape:connector-curvature="0"
             d="m 1094.86,1079.59 156.43,625.64 0,-312.81 -156.43,-312.83"
             id="path3057"
             style="fill:#f1471d;fill-opacity:1;fill-rule:nonzero;stroke:none" /><path
             inkscape:connector-curvature="0"
             d="m 1094.86,1079.59 156.43,-625.629 0,312.812 -156.43,312.817"
             id="path3059"
             style="fill:#f1471d;fill-opacity:1;fill-rule:nonzero;stroke:none" /></g><g
           inkscape:export-ydpi="90"
           inkscape:export-xdpi="90"
           inkscape:export-filename="/home/omni/Projects/Active/HaxeFoundation-Site/hxWiki/art/markup/files/powered-by-haxe.png"
           transform="matrix(0.62280701,0,0,0.62280701,1134.2184,-688.96929)"
           id="g3051"><path
             inkscape:connector-curvature="0"
             d="m 1444.7637,1285.0143 131.6341,0 0,-148.324 123.22,0 0,148.324 131.6347,0 0,-427.14693 -131.6347,0 0,169.29643 -123.22,0 0,-169.29643 -131.6341,0 0,427.14693"
             id="path3061"
             style="fill:#4f4c4c;fill-opacity:1;fill-rule:nonzero;stroke:none" /><path
             inkscape:connector-curvature="0"
             d="m 2120.8947,1010.4855 -38.3476,131.5388 -1.187,0 -41.2495,-131.5388 80.7841,0 z m -103.4662,274.5288 128.5478,0 155.5822,-427.14693 -136.407,0 -17.9355,60.99848 -135.8276,0 -19.1212,-60.99848 -132.2668,0 157.4281,427.14693"
             id="path3063"
             style="fill:#4f4c4c;fill-opacity:1;fill-rule:nonzero;stroke:none" /><path
             inkscape:connector-curvature="0"
             d="m 2444.0056,1085.2037 -140.6269,199.8106 154.3682,0 64.5906,-116.0354 63.4562,116.0354 145.9555,0 -136.9609,-201.0138 152.4954,-226.13313 -158.5083,0 -72.9778,127.43524 -75.3786,-127.43524 -150.7816,0 154.3682,227.33633"
             id="path3065"
             style="fill:#4f4c4c;fill-opacity:1;fill-rule:nonzero;stroke:none" /><path
             inkscape:connector-curvature="0"
             d="m 2774.2654,1285.0143 353.5777,0 0,-109.4213 -221.9457,0 0,-53.2705 201.6092,0 0,-101.7633 -201.6092,0 0,-53.21749 228.5625,0 0,-109.47434 -360.1945,0 0,427.14693"
             id="path3067"
             style="fill:#4f4c4c;fill-opacity:1;fill-rule:nonzero;stroke:none" /></g><flowRoot
           inkscape:export-ydpi="90"
           inkscape:export-xdpi="90"
           inkscape:export-filename="/home/omni/Projects/Active/HaxeFoundation-Site/hxWiki/art/markup/files/powered-by-haxe.png"
           transform="matrix(4.9824561,0,0,-4.9824561,1134.2184,373.0599)"
           style="font-size:40px;font-style:normal;font-weight:normal;line-height:125%;letter-spacing:0px;word-spacing:0px;fill:#f1471d;fill-opacity:1;stroke:none;font-family:Sans"
           id="flowRoot3015"
           xml:space="preserve"><flowRegion
             id="flowRegion3017"><rect
               style="fill:#f1471d;fill-opacity:1"
               y="-0.21552154"
               x="176.77669"
               height="54.80077"
               width="216.37471"
               id="rect3019" /></flowRegion><flowPara
             style="font-style:normal;font-variant:normal;font-weight:normal;font-stretch:normal;fill:#f1471d;fill-opacity:1;font-family:Ubuntu;-inkscape-font-specification:Ubuntu"
             id="flowPara3021">Powered by</flowPara></flowRoot></g></g></g></svg>